<svg width="327" height="72" viewBox="0 0 327 72" fill="none" xmlns="http://www.w3.org/2000/svg">
<path d="M15.78 41.16H20.48V43H13.5V29.1H15.78V41.16ZM21.6267 37.44C21.6267 36.3333 21.8534 35.3533 22.3067 34.5C22.7734 33.6467 23.4001 32.9867 24.1867 32.52C24.9867 32.04 25.8667 31.8 26.8267 31.8C27.6934 31.8 28.4467 31.9733 29.0867 32.32C29.7401 32.6533 30.2601 33.0733 30.6467 33.58V31.98H32.9467V43H30.6467V41.36C30.2601 41.88 29.7334 42.3133 29.0667 42.66C28.4001 43.0067 27.6401 43.18 26.7867 43.18C25.8401 43.18 24.9734 42.94 24.1867 42.46C23.4001 41.9667 22.7734 41.2867 22.3067 40.42C21.8534 39.54 21.6267 38.5467 21.6267 37.44ZM30.6467 37.48C30.6467 36.72 30.4867 36.06 30.1667 35.5C29.8601 34.94 29.4534 34.5133 28.9467 34.22C28.4401 33.9267 27.8934 33.78 27.3067 33.78C26.7201 33.78 26.1734 33.9267 25.6667 34.22C25.1601 34.5 24.7467 34.92 24.4267 35.48C24.1201 36.0267 23.9667 36.68 23.9667 37.44C23.9667 38.2 24.1201 38.8667 24.4267 39.44C24.7467 40.0133 25.1601 40.4533 25.6667 40.76C26.1867 41.0533 26.7334 41.2 27.3067 41.2C27.8934 41.2 28.4401 41.0533 28.9467 40.76C29.4534 40.4667 29.8601 40.04 30.1667 39.48C30.4867 38.9067 30.6467 38.24 30.6467 37.48ZM41.5014 31.8C42.3681 31.8 43.1414 31.98 43.8214 32.34C44.5147 32.7 45.0547 33.2333 45.4414 33.94C45.8281 34.6467 46.0214 35.5 46.0214 36.5V43H43.7614V36.84C43.7614 35.8533 43.5147 35.1 43.0214 34.58C42.5281 34.0467 41.8547 33.78 41.0014 33.78C40.1481 33.78 39.4681 34.0467 38.9614 34.58C38.4681 35.1 38.2214 35.8533 38.2214 36.84V43H35.9414V31.98H38.2214V33.24C38.5947 32.7867 39.0681 32.4333 39.6414 32.18C40.2281 31.9267 40.8481 31.8 41.5014 31.8ZM53.3697 31.8C54.223 31.8 54.9764 31.9733 55.6297 32.32C56.2964 32.6533 56.8164 33.0733 57.1897 33.58V31.98H59.4897V43.18C59.4897 44.1933 59.2764 45.0933 58.8497 45.88C58.423 46.68 57.803 47.3067 56.9897 47.76C56.1897 48.2133 55.2297 48.44 54.1097 48.44C52.6164 48.44 51.3764 48.0867 50.3897 47.38C49.403 46.6867 48.843 45.74 48.7097 44.54H50.9697C51.143 45.1133 51.5097 45.5733 52.0697 45.92C52.643 46.28 53.323 46.46 54.1097 46.46C55.0297 46.46 55.7697 46.18 56.3297 45.62C56.903 45.06 57.1897 44.2467 57.1897 43.18V41.34C56.803 41.86 56.2764 42.3 55.6097 42.66C54.9564 43.0067 54.2097 43.18 53.3697 43.18C52.4097 43.18 51.5297 42.94 50.7297 42.46C49.943 41.9667 49.3164 41.2867 48.8497 40.42C48.3964 39.54 48.1697 38.5467 48.1697 37.44C48.1697 36.3333 48.3964 35.3533 48.8497 34.5C49.3164 33.6467 49.943 32.9867 50.7297 32.52C51.5297 32.04 52.4097 31.8 53.3697 31.8ZM57.1897 37.48C57.1897 36.72 57.0297 36.06 56.7097 35.5C56.403 34.94 55.9964 34.5133 55.4897 34.22C54.983 33.9267 54.4364 33.78 53.8497 33.78C53.263 33.78 52.7164 33.9267 52.2097 34.22C51.703 34.5 51.2897 34.92 50.9697 35.48C50.663 36.0267 50.5097 36.68 50.5097 37.44C50.5097 38.2 50.663 38.8667 50.9697 39.44C51.2897 40.0133 51.703 40.4533 52.2097 40.76C52.7297 41.0533 53.2764 41.2 53.8497 41.2C54.4364 41.2 54.983 41.0533 55.4897 40.76C55.9964 40.4667 56.403 40.04 56.7097 39.48C57.0297 38.9067 57.1897 38.24 57.1897 37.48ZM72.4644 31.98V43H70.1844V41.7C69.8244 42.1533 69.351 42.5133 68.7644 42.78C68.191 43.0333 67.5777 43.16 66.9244 43.16C66.0577 43.16 65.2777 42.98 64.5844 42.62C63.9044 42.26 63.3644 41.7267 62.9644 41.02C62.5777 40.3133 62.3844 39.46 62.3844 38.46V31.98H64.6444V38.12C64.6444 39.1067 64.891 39.8667 65.3844 40.4C65.8777 40.92 66.551 41.18 67.4044 41.18C68.2577 41.18 68.931 40.92 69.4244 40.4C69.931 39.8667 70.1844 39.1067 70.1844 38.12V31.98H72.4644ZM74.7127 37.44C74.7127 36.3333 74.9393 35.3533 75.3927 34.5C75.8593 33.6467 76.486 32.9867 77.2727 32.52C78.0727 32.04 78.9527 31.8 79.9127 31.8C80.7793 31.8 81.5327 31.9733 82.1727 32.32C82.826 32.6533 83.346 33.0733 83.7327 33.58V31.98H86.0327V43H83.7327V41.36C83.346 41.88 82.8193 42.3133 82.1527 42.66C81.486 43.0067 80.726 43.18 79.8727 43.18C78.926 43.18 78.0593 42.94 77.2727 42.46C76.486 41.9667 75.8593 41.2867 75.3927 40.42C74.9393 39.54 74.7127 38.5467 74.7127 37.44ZM83.7327 37.48C83.7327 36.72 83.5727 36.06 83.2527 35.5C82.946 34.94 82.5393 34.5133 82.0327 34.22C81.526 33.9267 80.9793 33.78 80.3927 33.78C79.806 33.78 79.2593 33.9267 78.7527 34.22C78.246 34.5 77.8327 34.92 77.5127 35.48C77.206 36.0267 77.0527 36.68 77.0527 37.44C77.0527 38.2 77.206 38.8667 77.5127 39.44C77.8327 40.0133 78.246 40.4533 78.7527 40.76C79.2727 41.0533 79.8193 41.2 80.3927 41.2C80.9793 41.2 81.526 41.0533 82.0327 40.76C82.5393 40.4667 82.946 40.04 83.2527 39.48C83.5727 38.9067 83.7327 38.24 83.7327 37.48ZM93.4673 31.8C94.3207 31.8 95.074 31.9733 95.7273 32.32C96.394 32.6533 96.914 33.0733 97.2873 33.58V31.98H99.5873V43.18C99.5873 44.1933 99.374 45.0933 98.9473 45.88C98.5207 46.68 97.9007 47.3067 97.0873 47.76C96.2873 48.2133 95.3273 48.44 94.2073 48.44C92.714 48.44 91.474 48.0867 90.4873 47.38C89.5007 46.6867 88.9407 45.74 88.8073 44.54H91.0673C91.2407 45.1133 91.6073 45.5733 92.1673 45.92C92.7407 46.28 93.4207 46.46 94.2073 46.46C95.1273 46.46 95.8673 46.18 96.4273 45.62C97.0007 45.06 97.2873 44.2467 97.2873 43.18V41.34C96.9007 41.86 96.374 42.3 95.7073 42.66C95.054 43.0067 94.3073 43.18 93.4673 43.18C92.5073 43.18 91.6273 42.94 90.8273 42.46C90.0407 41.9667 89.414 41.2867 88.9473 40.42C88.494 39.54 88.2673 38.5467 88.2673 37.44C88.2673 36.3333 88.494 35.3533 88.9473 34.5C89.414 33.6467 90.0407 32.9867 90.8273 32.52C91.6273 32.04 92.5073 31.8 93.4673 31.8ZM97.2873 37.48C97.2873 36.72 97.1273 36.06 96.8073 35.5C96.5007 34.94 96.094 34.5133 95.5873 34.22C95.0807 33.9267 94.534 33.78 93.9473 33.78C93.3607 33.78 92.814 33.9267 92.3073 34.22C91.8007 34.5 91.3873 34.92 91.0673 35.48C90.7607 36.0267 90.6073 36.68 90.6073 37.44C90.6073 38.2 90.7607 38.8667 91.0673 39.44C91.3873 40.0133 91.8007 40.4533 92.3073 40.76C92.8273 41.0533 93.374 41.2 93.9473 41.2C94.534 41.2 95.0807 41.0533 95.5873 40.76C96.094 40.4667 96.5007 40.04 96.8073 39.48C97.1273 38.9067 97.2873 38.24 97.2873 37.48ZM112.682 37.22C112.682 37.6333 112.655 38.0067 112.602 38.34H104.182C104.249 39.22 104.575 39.9267 105.162 40.46C105.749 40.9933 106.469 41.26 107.322 41.26C108.549 41.26 109.415 40.7467 109.922 39.72H112.382C112.049 40.7333 111.442 41.5667 110.562 42.22C109.695 42.86 108.615 43.18 107.322 43.18C106.269 43.18 105.322 42.9467 104.482 42.48C103.655 42 103.002 41.3333 102.522 40.48C102.055 39.6133 101.822 38.6133 101.822 37.48C101.822 36.3467 102.049 35.3533 102.502 34.5C102.969 33.6333 103.615 32.9667 104.442 32.5C105.282 32.0333 106.242 31.8 107.322 31.8C108.362 31.8 109.289 32.0267 110.102 32.48C110.915 32.9333 111.549 33.5733 112.002 34.4C112.455 35.2133 112.682 36.1533 112.682 37.22ZM110.302 36.5C110.289 35.66 109.989 34.9867 109.402 34.48C108.815 33.9733 108.089 33.72 107.222 33.72C106.435 33.72 105.762 33.9733 105.202 34.48C104.642 34.9733 104.309 35.6467 104.202 36.5H110.302ZM118.926 43.18C118.059 43.18 117.279 43.0267 116.586 42.72C115.906 42.4 115.366 41.9733 114.966 41.44C114.566 40.8933 114.352 40.2867 114.326 39.62H116.686C116.726 40.0867 116.946 40.48 117.346 40.8C117.759 41.1067 118.272 41.26 118.886 41.26C119.526 41.26 120.019 41.14 120.366 40.9C120.726 40.6467 120.906 40.3267 120.906 39.94C120.906 39.5267 120.706 39.22 120.306 39.02C119.919 38.82 119.299 38.6 118.446 38.36C117.619 38.1333 116.946 37.9133 116.426 37.7C115.906 37.4867 115.452 37.16 115.066 36.72C114.692 36.28 114.506 35.7 114.506 34.98C114.506 34.3933 114.679 33.86 115.026 33.38C115.372 32.8867 115.866 32.5 116.506 32.22C117.159 31.94 117.906 31.8 118.746 31.8C119.999 31.8 121.006 32.12 121.766 32.76C122.539 33.3867 122.952 34.2467 123.006 35.34H120.726C120.686 34.8467 120.486 34.4533 120.126 34.16C119.766 33.8667 119.279 33.72 118.666 33.72C118.066 33.72 117.606 33.8333 117.286 34.06C116.966 34.2867 116.806 34.5867 116.806 34.96C116.806 35.2533 116.912 35.5 117.126 35.7C117.339 35.9 117.599 36.06 117.906 36.18C118.212 36.2867 118.666 36.4267 119.266 36.6C120.066 36.8133 120.719 37.0333 121.226 37.26C121.746 37.4733 122.192 37.7933 122.566 38.22C122.939 38.6467 123.132 39.2133 123.146 39.92C123.146 40.5467 122.972 41.1067 122.626 41.6C122.279 42.0933 121.786 42.48 121.146 42.76C120.519 43.04 119.779 43.18 118.926 43.18Z" fill="black"/>
<path fill-rule="evenodd" clip-rule="evenodd" d="M274.293 32.2929C274.683 31.9024 275.317 31.9024 275.707 32.2929L281 37.5858L286.293 32.2929C286.683 31.9024 287.317 31.9024 287.707 32.2929C288.098 32.6834 288.098 33.3166 287.707 33.7071L281.707 39.7071C281.317 40.0976 280.683 40.0976 280.293 39.7071L274.293 33.7071C273.902 33.3166 273.902 32.6834 274.293 32.2929Z" fill="#5E6C84"/>
</svg>
